# xmcd CD database file
#
# Track frame offsets:
#	150
#	17167
#	34369
#	50056
#	67073
#	88730
#	107689
#	125446
#	143558
#	161515
#	178910
#	195024
#	212684
#	229581
#	257305
#	280712
#	303282
#
# Disc length: 4327 seconds
#
# Revision: 0
# Processed by: cddbd v1.5.1PL0 Copyright (c) Steve Scherf et al.
# Submitted via: CDex 1.51
#
DISCID=e610e511
DTITLE=E-ROTIC - Greatest Tits
DYEAR=1998
DGENRE=Dance
TTITLE0=Willy Use a Billy...Boy
TTITLE1=Turn Me On
TTITLE2=Baby Please Me
TTITLE3=Help Me Dr. Dick
TTITLE4=The Winner Takes It All
TTITLE5=Fritz Love My Tits
TTITLE6=Gotta Get It Groovin'
TTITLE7=Fred Come to Bed
TTITLE8=Sex on the Phone
TTITLE9=Sxual Madness
TTITLE10=Max Don't Have Sex With Your Ex
TTITLE11=Gimme Good Sex
TTITLE12=In the Dark of the Night
TTITLE13=Megamix [Extended Version]
TTITLE14=Willy Use a Billy...Boy [Willy's Lastest Remix]
TTITLE15=Help Me Dr. Dick [Club Version]
TTITLE16=Turn Me On [Club Version]
EXTD=YEAR: 1998
EXTT0=
EXTT1=
EXTT2=
EXTT3=
EXTT4=
EXTT5=
EXTT6=
EXTT7=
EXTT8=
EXTT9=
EXTT10=
EXTT11=
EXTT12=
EXTT13=
EXTT14=
EXTT15=
EXTT16=
PLAYORDER=
